<svg width="818" height="214" viewBox="0 0 818 214" fill="none" xmlns="http://www.w3.org/2000/svg">
<path d="M307.216 4.97093V212.655H247.426V4.97093H307.216ZM417.445 4.97093V40.9993H449.844V98.6233H485.141V4.97093H548.499L548.508 5.46117L552.598 212.145L552.608 212.655H485.141V141.087H448.844V112.023H412.527L412.685 161.837L412.844 212.153L412.846 212.655H349.157V4.97093H417.445ZM637.5 5.97093H591.469L591.45 49.301C596.331 49.2927 600.167 49.1652 603.158 49.0442C606.239 48.9196 608.455 48.8016 609.976 48.8381C610.736 48.8564 611.36 48.9136 611.849 49.0403C612.339 49.1672 612.756 49.3805 613.022 49.759C613.289 50.1383 613.34 50.5931 613.296 51.0588C613.255 51.4912 613.126 51.9911 612.952 52.5549C613.818 56.9771 613.22 60.3773 611.705 63.0715C610.183 65.7788 607.769 67.7174 605.137 69.2629C602.513 70.8033 599.61 71.9869 597.117 73.136C594.663 74.2677 592.641 75.3543 591.468 76.7043L591.45 96.6858C593.095 96.4176 594.307 96.3426 595.376 96.3039C596.572 96.2607 597.544 96.2618 598.759 96.0959C601.174 95.7661 604.562 94.7668 612.194 91.3459C618.771 86.779 622.313 84.0369 628.366 77.216C630.821 70.8051 637.5 64.112 637.5 47.6555V5.97093ZM638.5 47.6555C638.5 64.4236 631.554 71.5855 629.266 77.6604L629.233 77.7463L629.172 77.8157C623.004 84.774 619.392 87.5678 612.725 92.1965L612.687 92.2229L612.644 92.2414C604.969 95.6829 601.463 96.7363 598.894 97.0871C597.614 97.2618 596.57 97.2611 595.412 97.303C594.252 97.3449 592.931 97.4301 591.039 97.7707L590.45 97.8762V97.2776L590.469 76.5178V76.3391L590.581 76.2014C591.902 74.5854 594.191 73.3848 596.698 72.2287C599.247 71.0536 602.063 69.9075 604.63 68.4006C607.188 66.8988 609.434 65.0718 610.834 62.5823C612.227 60.1049 612.812 56.9157 611.949 52.6262L611.924 52.5002L611.962 52.3782C612.152 51.7741 612.267 51.3168 612.3 50.9651C612.332 50.6162 612.278 50.4388 612.205 50.3342C612.131 50.229 611.974 50.1052 611.599 50.008C611.223 49.9106 610.69 49.8559 609.951 49.8381C608.473 49.8026 606.311 49.9173 603.199 50.0432C600.099 50.1686 596.088 50.303 590.95 50.303H590.45V49.803L590.469 5.46996V4.97093H638.5V47.6555ZM92 84.0813H116.5V41.0159L116.983 40.9993L136.5 40.3323V0.654526H203.509V111.355H152.843V94.2493H122.5V131.237H84V94.2493H53V111.355H0.5V0.654526H66V40.3293L91.5127 40.9993L92 41.0119V84.0813Z" fill="white" stroke="white"/>
<path d="M590 1H640V45.086L637.34 65.5161L626.17 85.9462L609.149 97.7742L590 101V78.1187V75L595 72.5L601 70.5L611.5 59.5L612.34 50.4624H590V1Z" fill="#2C53D4"/>
<path d="M693.556 1.15453H818V46.2853H725.39V82.681H782.031V108.886H818V173.306H778.31V207.155H658V163.48H752.677V120.533H693.556V90.6881H658V41.1899H693.556V1.15453Z" fill="#2C53D4"/>
<ellipse cx="7.5" cy="131.655" rx="5.5" ry="4.5" fill="#919191"/>
<ellipse cx="46.5" cy="131.655" rx="5.5" ry="4.5" fill="#919191"/>
<ellipse cx="26.5" cy="131.655" rx="5.5" ry="4.5" fill="#919191"/>
<ellipse cx="6.5" cy="154.655" rx="5.5" ry="3.5" fill="#919191"/>
<ellipse cx="46.5" cy="154.655" rx="5.5" ry="3.5" fill="#919191"/>
<ellipse cx="26.5" cy="154.655" rx="5.5" ry="3.5" fill="#919191"/>
<ellipse cx="6.5" cy="195.655" rx="5.5" ry="4.5" fill="#919191"/>
<ellipse cx="46.5" cy="195.655" rx="5.5" ry="4.5" fill="#919191"/>
<ellipse cx="26.5" cy="195.655" rx="5.5" ry="4.5" fill="#919191"/>
<ellipse cx="37.5" cy="208.155" rx="5.5" ry="4" fill="#919191"/>
<ellipse cx="15.5" cy="208.155" rx="5.5" ry="4" fill="#919191"/>
<ellipse cx="37.5" cy="142.655" rx="5.5" ry="4.5" fill="#919191"/>
<ellipse cx="15.5" cy="142.655" rx="5.5" ry="4.5" fill="#919191"/>
<ellipse cx="37.5" cy="165.155" rx="5.5" ry="5" fill="#919191"/>
<ellipse cx="15.5" cy="165.155" rx="5.5" ry="5" fill="#919191"/>
<ellipse cx="37.5" cy="185.655" rx="5.5" ry="3.5" fill="#919191"/>
<ellipse cx="15.5" cy="185.655" rx="5.5" ry="3.5" fill="#919191"/>
<ellipse cx="6.5" cy="175.655" rx="5.5" ry="4.5" fill="#919191"/>
<ellipse cx="46.5" cy="175.655" rx="5.5" ry="4.5" fill="#919191"/>
<ellipse cx="26.5" cy="175.655" rx="5.5" ry="4.5" fill="#919191"/>
<ellipse cx="157.5" cy="131.655" rx="5.5" ry="4.5" fill="#919191"/>
<ellipse cx="196.5" cy="131.655" rx="5.5" ry="4.5" fill="#919191"/>
<ellipse cx="176.5" cy="131.655" rx="5.5" ry="4.5" fill="#919191"/>
<ellipse cx="156.5" cy="154.655" rx="5.5" ry="3.5" fill="#919191"/>
<ellipse cx="196.5" cy="154.655" rx="5.5" ry="3.5" fill="#919191"/>
<ellipse cx="176.5" cy="154.655" rx="5.5" ry="3.5" fill="#919191"/>
<ellipse cx="156.5" cy="195.655" rx="5.5" ry="4.5" fill="#919191"/>
<ellipse cx="196.5" cy="195.655" rx="5.5" ry="4.5" fill="#919191"/>
<ellipse cx="176.5" cy="195.655" rx="5.5" ry="4.5" fill="#919191"/>
<ellipse cx="187.5" cy="208.155" rx="5.5" ry="4" fill="#919191"/>
<ellipse cx="165.5" cy="208.155" rx="5.5" ry="4" fill="#919191"/>
<ellipse cx="187.5" cy="142.655" rx="5.5" ry="4.5" fill="#919191"/>
<ellipse cx="165.5" cy="142.655" rx="5.5" ry="4.5" fill="#919191"/>
<ellipse cx="187.5" cy="165.155" rx="5.5" ry="5" fill="#919191"/>
<ellipse cx="165.5" cy="165.155" rx="5.5" ry="5" fill="#919191"/>
<ellipse cx="187.5" cy="185.655" rx="5.5" ry="3.5" fill="#919191"/>
<ellipse cx="165.5" cy="185.655" rx="5.5" ry="3.5" fill="#919191"/>
<ellipse cx="156.5" cy="175.655" rx="5.5" ry="4.5" fill="#919191"/>
<ellipse cx="196.5" cy="175.655" rx="5.5" ry="4.5" fill="#919191"/>
<ellipse cx="176.5" cy="175.655" rx="5.5" ry="4.5" fill="#919191"/>
</svg>
